# Blender v3.0.1 OBJ File: 'generator_1.blend'
# www.blender.org
mtllib generator_1.mtl
o power_generator_Untitled.005
v 1.304029 1.211666 -2.415193
v 0.056387 1.211666 -1.898403
v -1.191255 1.211666 -2.415192
v -1.708045 1.211666 -3.662835
v -1.191256 1.211666 -4.910477
v 0.056386 3.147562 -5.427267
v 1.304028 1.211666 -4.910478
v 1.820818 1.211666 -3.662835
v 1.304029 4.059844 -2.415193
v 0.056387 4.059844 -1.898403
v -1.191255 4.059844 -2.415192
v -1.708045 4.059844 -3.662835
v -1.191255 4.059844 -4.910477
v 0.056386 4.059844 -5.427267
v 1.304029 4.059844 -4.910478
v 1.820819 4.059844 -3.662835
v 2.209761 1.211666 -1.509459
v -2.096989 1.211666 -1.509459
v -2.096988 1.211666 -5.816210
v 2.209762 1.211666 -5.816209
v 2.640437 0.108681 -6.247932
v -2.527663 0.108681 -6.247931
v -2.527664 0.108681 -1.078784
v 2.640438 0.108681 -1.078785
v 1.731235 1.211666 -1.509459
v -1.618461 1.211666 -1.509459
v -1.953429 0.108681 -1.078784
v 2.066204 0.108681 -1.078784
v 1.731237 1.211666 6.430483
v -1.618459 1.211666 6.430484
v 2.066206 0.108681 6.861158
v -1.953428 0.108681 6.861159
v 1.563750 1.211666 -1.332413
v 1.563752 1.211666 6.253435
v -1.450974 1.211666 6.253436
v -1.450976 1.211666 -1.332412
v -1.450976 3.068242 -1.332412
v -1.450974 3.068242 6.253436
v 1.563752 3.068242 6.253435
v 1.563750 3.068242 -1.332413
v 1.221486 3.752769 -1.332412
v 1.221487 3.752769 6.253435
v -1.108710 3.752769 6.253435
v -1.108713 3.752769 -1.332412
v -1.618460 1.211666 2.675849
v 1.731236 1.211666 2.675849
v 2.066205 0.108681 2.675848
v -1.953429 0.108681 2.675849
v 1.563750 1.211666 -0.971182
v 1.563751 1.211666 2.494942
v 1.563751 1.211666 2.856172
v 1.563752 1.211666 5.892204
v -1.450974 1.211666 5.892205
v -1.450975 1.211666 2.856173
v -1.450975 1.211666 2.494940
v -1.450976 1.211666 -0.971182
v -1.450976 3.068242 -0.971182
v -1.450975 3.068242 2.494942
v -1.450975 3.068242 2.856173
v -1.450974 3.068242 5.892205
v 1.563752 3.068242 5.892204
v 1.563751 3.068242 2.856172
v 1.563751 3.068242 2.494940
v 1.563750 3.068242 -0.971182
v 1.221486 3.752769 -0.971182
v 1.221487 3.752769 2.856172
v 1.221487 3.752769 5.892205
v -1.108710 3.752769 5.892205
v -1.108710 3.752769 2.856173
v -1.108710 3.752769 2.494940
v -1.108713 3.752769 -0.971182
v 1.221487 3.752769 2.494942
v -0.875691 3.752769 -0.971182
v 0.988466 3.752769 -0.971182
v 0.988467 3.752769 2.494942
v -0.875691 3.752769 2.494940
v -0.875691 3.752769 2.856173
v 0.988467 3.752769 2.856172
v -0.875690 3.752769 5.892205
v 0.988467 3.752769 5.892205
v -1.201918 1.211666 2.856173
v -1.201918 1.211666 5.892205
v 1.314694 1.211666 2.856172
v 1.314695 1.211666 5.892204
v 1.314693 1.211666 -0.971182
v 1.314694 1.211666 2.494942
v -1.201919 1.211666 -0.971182
v -1.201918 1.211666 2.494940
v 1.314695 3.070918 5.892204
v 1.314694 3.070918 2.856172
v 1.314694 3.070918 2.494942
v 1.314693 3.070918 -0.971182
v -1.201919 3.070919 -0.971182
v -1.201918 3.070919 2.494940
v -1.201918 3.070919 2.856173
v -1.201918 3.070919 5.892205
v -0.880154 1.211666 -5.039674
v 0.992927 1.211666 -5.039674
v -0.880154 3.147562 -5.039674
v 0.992928 3.147560 -5.039674
v -0.880154 3.147562 -6.247932
v 0.992927 3.147560 -6.247932
v -0.880154 1.211666 -5.816211
v 0.992927 1.211666 -5.816209
v 0.992927 0.108681 -6.247932
v -0.880155 0.108681 -6.247932
v -0.786500 2.995618 -6.247932
v -0.786500 0.260625 -6.247932
v 0.899273 2.995616 -6.247932
v 0.899273 0.260625 -6.247932
v -0.786500 2.995618 -6.367378
v 0.899273 2.995616 -6.367378
v -0.786501 0.260625 -6.367378
v 0.899273 0.260625 -6.367378
v 1.467932 4.757711 -3.662835
v 1.054499 4.757711 -4.660949
v 0.056387 4.757711 -5.074380
v -0.941726 4.757711 -4.660949
v -1.355158 4.757711 -3.662835
v -0.941727 4.757711 -2.664722
v 0.056387 4.757711 -2.251290
v 1.054501 4.757711 -2.664722
v 0.528055 2.611621 -1.332412
v 0.723425 2.139953 -1.332412
v 0.528055 1.668287 -1.332412
v 0.056387 1.472915 -1.332412
v -0.415281 1.668287 -1.332412
v -0.610651 2.139953 -1.332412
v -0.415281 2.611621 -1.332412
v 0.056387 2.806993 -1.332412
v 0.723425 2.139953 -2.189868
v 0.528055 2.611621 -2.189868
v 0.528055 1.668287 -2.189868
v 0.056387 1.472915 -2.189868
v -0.415281 1.668287 -2.189868
v -0.610651 2.139953 -2.189868
v -0.415281 2.611621 -2.189868
v 0.056387 2.806993 -2.189868
v 0.493062 3.752769 4.810863
v 0.056389 3.752769 4.991740
v -0.380286 3.752769 4.810863
v -0.561163 3.752769 4.374188
v -0.380286 3.752769 3.937515
v 0.056388 3.752769 3.756637
v 0.493062 3.752769 3.937515
v 0.673940 3.752769 4.374188
v 0.493062 3.752769 1.198554
v 0.056388 3.752769 1.379431
v -0.380286 3.752769 1.198554
v -0.561163 3.752769 0.761878
v -0.380286 3.752769 0.325204
v 0.056388 3.752769 0.144327
v 0.493061 3.752769 0.325204
v 0.673939 3.752769 0.761878
v 0.493062 3.884842 4.810863
v 0.056389 3.884842 4.991740
v -0.380286 3.884842 4.810863
v -0.561163 3.884842 4.374188
v -0.380286 3.884842 3.937515
v 0.056388 3.884842 3.756637
v 0.493062 3.884842 3.937515
v 0.673940 3.884842 4.374188
v 0.493062 3.884842 1.198554
v 0.056388 3.884842 1.379431
v -0.380286 3.884842 1.198554
v -0.561163 3.884842 0.761878
v -0.380286 3.884842 0.325204
v 0.056388 3.884842 0.144327
v 0.493061 3.884842 0.325204
v 0.673939 3.884842 0.761878
v -1.201918 2.297249 5.594604
v -1.201918 2.084209 5.651688
v -1.201918 1.928253 5.495732
v -1.201918 1.985338 5.282695
v -1.201918 2.198377 5.225610
v -1.201918 2.354332 5.381567
v -1.309532 2.383166 5.381567
v -1.387509 2.248106 5.225611
v -1.494028 2.063608 5.282695
v -1.522571 2.014172 5.495732
v -1.444594 2.149234 5.651689
v -1.338074 2.333730 5.594604
v -1.437746 2.433405 5.594604
v -1.622244 2.326884 5.651689
v -1.757304 2.248907 5.495732
v -1.707869 2.277448 5.282695
v -1.523373 2.383969 5.225611
v -1.388310 2.461946 5.381567
v -1.417147 2.569561 5.381567
v -1.573101 2.569561 5.225611
v -1.786140 2.569561 5.282695
v -1.843223 2.569561 5.495732
v -1.687269 2.569561 5.651689
v -1.474230 2.569561 5.594604
v -1.359342 2.569561 5.709492
v -1.260207 2.569561 5.339515
v -1.531050 2.569561 5.068673
v -1.901026 2.569561 5.167808
v -2.000161 2.569561 5.537785
v -1.729319 2.569561 5.808626
v -1.260207 4.053236 5.339515
v -1.359342 4.053236 5.709492
v -1.531049 4.053236 5.068673
v -1.901026 4.053236 5.167808
v -2.000161 4.053236 5.537785
v -1.729319 4.053236 5.808626
v -1.473056 4.053236 5.595779
v -1.415543 4.053236 5.381136
v -1.572670 4.053236 5.224009
v -1.787312 4.053236 5.281521
v -1.844825 4.053236 5.496163
v -1.687697 4.053236 5.653291
v -1.473056 5.319849 5.595779
v -1.415543 5.319849 5.381136
v -1.572670 5.319849 5.224009
v -1.787312 5.319849 5.281521
v -1.844825 5.319849 5.496163
v -1.687697 5.319849 5.653291
vn 0.9315 0.3637 0.0000
vn -0.9315 0.3637 -0.0000
vn 0.0000 1.0000 0.0000
vn 0.0000 0.3637 0.9315
vn -0.0000 0.0000 -1.0000
vn 0.0000 0.0000 1.0000
vn 0.9568 0.2906 -0.0000
vn -0.9568 0.2906 0.0000
vn -1.0000 0.0000 0.0000
vn 1.0000 0.0000 0.0000
vn 0.8944 0.4472 0.0000
vn -0.8944 0.4472 0.0000
vn 0.9021 0.4316 -0.0000
vn -0.9021 0.4316 0.0000
vn 0.0000 0.3645 -0.9312
vn 0.0000 -1.0000 -0.0000
vn 0.0000 0.2201 0.9755
vn 0.0000 0.8042 0.5943
vn 0.4203 0.8042 0.4203
vn 0.6897 0.2201 0.6897
vn -0.6897 0.2201 0.6897
vn -0.4203 0.8042 0.4203
vn -0.9755 0.2201 0.0000
vn -0.5943 0.8042 0.0000
vn -0.6898 0.2202 -0.6897
vn -0.4206 0.8040 -0.4202
vn 0.9755 0.2201 0.0000
vn 0.5943 0.8042 0.0000
vn 0.4206 0.8040 -0.4202
vn 0.6898 0.2202 -0.6897
vn 0.5993 0.2092 -0.7727
vn 0.0000 0.8041 -0.5945
vn 0.0000 0.2202 -0.9754
vn -0.5993 0.2092 -0.7726
vn 0.6648 0.6009 -0.4437
vn -0.6648 0.6009 -0.4437
vn 0.4285 0.7954 0.4285
vn 0.6060 0.7954 0.0000
vn 0.4285 0.7954 -0.4285
vn 0.0000 0.7954 -0.6060
vn -0.4285 0.7954 -0.4285
vn -0.6060 0.7954 0.0000
vn -0.4285 0.7954 0.4285
vn 0.0000 0.7954 0.6060
vn 0.7071 0.7071 0.0000
vn 0.7071 -0.7071 0.0000
vn -0.7071 -0.7071 0.0000
vn -0.7071 0.7071 0.0000
vn 0.0000 0.6302 0.7764
vn 0.7071 0.0000 0.7071
vn 0.5490 0.6302 0.5490
vn -0.5490 0.6302 0.5490
vn -0.7071 0.0000 0.7071
vn -0.7764 0.6302 0.0000
vn -0.5490 0.6302 -0.5490
vn -0.7071 0.0000 -0.7071
vn 0.0000 0.6302 -0.7764
vn 0.5490 0.6302 -0.5490
vn 0.7071 0.0000 -0.7071
vn 0.7764 0.6302 0.0000
vn 0.1742 0.6503 0.7393
vn 0.2489 0.9292 -0.2732
vn 0.4797 0.8308 -0.2821
vn 0.3302 0.5719 0.7508
vn 0.0477 0.1780 -0.9829
vn 0.0891 0.1543 -0.9840
vn -0.1955 -0.7297 -0.6551
vn -0.3721 -0.6444 -0.6680
vn -0.2517 -0.9394 0.2326
vn -0.4853 -0.8406 0.2403
vn -0.0888 -0.3316 0.9392
vn -0.1664 -0.2883 0.9429
vn 0.5720 0.3302 0.7508
vn -0.2883 -0.1664 0.9429
vn -0.8406 -0.4853 0.2403
vn -0.6444 -0.3721 -0.6680
vn 0.1543 0.0891 -0.9840
vn 0.8308 0.4797 -0.2821
vn 0.6130 -0.7692 -0.1802
vn 0.4033 -0.7919 0.4585
vn 0.1003 -0.8263 -0.5542
vn -0.3517 -0.8813 -0.3157
vn -0.4383 -0.8922 0.1085
vn -0.1706 -0.8587 0.4832
vn 0.5603 -0.6100 0.5603
vn 0.7654 -0.6100 -0.2051
vn 0.7654 0.6100 -0.2051
vn 0.5603 0.6100 0.5603
vn 0.2051 -0.6100 -0.7654
vn 0.2051 0.6100 -0.7654
vn -0.5603 -0.6100 -0.5603
vn -0.5603 0.6100 -0.5603
vn -0.7654 -0.6100 0.2051
vn -0.7654 0.6100 0.2051
vn -0.2051 -0.6100 0.7654
vn -0.2051 0.6100 0.7654
vn 0.3851 0.8386 0.3851
vn 0.5261 0.8386 -0.1410
vn 0.1410 0.8386 -0.5261
vn -0.3851 0.8386 -0.3851
vn -0.5261 0.8386 0.1410
vn -0.1410 0.8386 0.5261
usemtl _SA_LD_Generator_null_
s off
f 21//1 20//1 17//1
f 17//1 24//1 21//1
f 23//2 18//2 19//2
f 19//2 22//2 23//2
f 4//3 5//3 19//3
f 4//3 19//3 18//3
f 3//3 4//3 18//3
f 1//3 17//3 8//3
f 8//3 17//3 20//3
f 7//3 8//3 20//3
f 28//4 24//4 17//4
f 17//4 25//4 28//4
f 27//4 26//4 18//4
f 18//4 23//4 27//4
f 26//3 25//3 2//3
f 26//3 2//3 3//3
f 3//3 18//3 26//3
f 25//3 17//3 1//3
f 1//3 2//3 25//3
f 31//4 29//4 30//4
f 30//4 32//4 31//4
f 35//3 30//3 29//3
f 29//3 34//3 35//3
f 33//3 25//3 26//3
f 26//3 36//3 33//3
f 40//5 33//5 36//5
f 36//5 37//5 40//5
f 38//6 35//6 34//6
f 34//6 39//6 38//6
f 43//6 38//6 39//6
f 39//6 42//6 43//6
f 41//5 40//5 37//5
f 37//5 44//5 41//5
f 28//7 25//7 46//7
f 46//7 47//7 28//7
f 47//7 46//7 29//7
f 29//7 31//7 47//7
f 45//8 26//8 27//8
f 27//8 48//8 45//8
f 30//8 45//8 48//8
f 48//8 32//8 30//8
f 37//9 36//9 56//9
f 56//9 57//9 37//9
f 60//9 53//9 35//9
f 35//9 38//9 60//9
f 39//10 34//10 52//10
f 52//10 61//10 39//10
f 64//10 49//10 33//10
f 33//10 40//10 64//10
f 42//11 39//11 61//11
f 61//11 67//11 42//11
f 65//11 64//11 40//11
f 40//11 41//11 65//11
f 44//12 37//12 57//12
f 57//12 71//12 44//12
f 68//12 60//12 38//12
f 38//12 43//12 68//12
f 50//3 51//3 46//3
f 54//3 55//3 45//3
f 58//9 55//9 54//9
f 54//9 59//9 58//9
f 62//10 51//10 50//10
f 50//10 63//10 62//10
f 66//11 62//11 63//11
f 63//11 72//11 66//11
f 70//12 58//12 59//12
f 59//12 69//12 70//12
f 29//3 52//3 34//3
f 25//3 33//3 49//3
f 49//3 50//3 46//3
f 46//3 25//3 49//3
f 46//3 51//3 52//3
f 52//3 29//3 46//3
f 26//3 56//3 36//3
f 30//3 35//3 53//3
f 53//3 54//3 45//3
f 45//3 30//3 53//3
f 45//3 55//3 56//3
f 56//3 26//3 45//3
f 78//3 75//3 76//3
f 76//3 77//3 78//3
f 78//3 77//3 79//3
f 79//3 80//3 78//3
f 74//3 73//3 76//3
f 76//3 75//3 74//3
f 70//3 69//3 77//3
f 77//3 76//3 70//3
f 43//3 42//3 80//3
f 80//3 79//3 43//3
f 43//3 79//3 68//3
f 42//3 67//3 80//3
f 78//3 66//3 72//3
f 72//3 75//3 78//3
f 74//3 41//3 44//3
f 44//3 73//3 74//3
f 41//3 74//3 65//3
f 44//3 71//3 73//3
f 54//3 53//3 82//3
f 82//3 81//3 54//3
f 56//3 55//3 88//3
f 88//3 87//3 56//3
f 50//3 49//3 85//3
f 85//3 86//3 50//3
f 52//3 51//3 83//3
f 83//3 84//3 52//3
f 78//13 80//13 89//13
f 89//13 90//13 78//13
f 90//10 89//10 84//10
f 84//10 83//10 90//10
f 74//13 75//13 91//13
f 91//13 92//13 74//13
f 92//10 91//10 86//10
f 86//10 85//10 92//10
f 76//14 73//14 93//14
f 93//14 94//14 76//14
f 94//9 93//9 87//9
f 87//9 88//9 94//9
f 79//14 77//14 95//14
f 95//14 96//14 79//14
f 96//9 95//9 81//9
f 81//9 82//9 96//9
f 90//6 62//6 66//6
f 66//6 78//6 90//6
f 91//5 75//5 72//5
f 72//5 63//5 91//5
f 89//5 80//5 67//5
f 67//5 61//5 89//5
f 95//6 77//6 69//6
f 69//6 59//6 95//6
f 96//5 60//5 68//5
f 68//5 79//5 96//5
f 94//5 58//5 70//5
f 70//5 76//5 94//5
f 93//6 73//6 71//6
f 71//6 57//6 93//6
f 51//6 62//6 90//6
f 90//6 83//6 51//6
f 89//5 61//5 52//5
f 52//5 84//5 89//5
f 91//5 63//5 50//5
f 50//5 86//5 91//5
f 55//5 58//5 94//5
f 94//5 88//5 55//5
f 93//6 57//6 56//6
f 56//6 87//6 93//6
f 95//6 59//6 54//6
f 54//6 81//6 95//6
f 53//5 60//5 96//5
f 96//5 82//5 53//5
f 6//3 100//3 102//3
f 106//15 22//15 19//15
f 19//15 103//15 106//15
f 105//15 104//15 20//15
f 20//15 21//15 105//15
f 103//9 97//9 99//9
f 99//9 101//9 103//9
f 100//10 98//10 104//10
f 104//10 102//10 100//10
f 102//10 104//10 105//10
f 101//9 106//9 103//9
f 103//3 19//3 5//3
f 5//3 97//3 103//3
f 104//3 98//3 7//3
f 7//3 20//3 104//3
f 99//3 6//3 101//3
f 101//3 6//3 102//3
f 108//5 106//5 101//5
f 101//5 107//5 108//5
f 109//5 102//5 105//5
f 105//5 110//5 109//5
f 110//5 105//5 106//5
f 106//5 108//5 110//5
f 107//5 101//5 102//5
f 102//5 109//5 107//5
f 111//3 107//3 109//3
f 109//3 112//3 111//3
f 114//16 110//16 108//16
f 108//16 113//16 114//16
f 112//10 109//10 110//10
f 110//10 114//10 112//10
f 113//9 108//9 107//9
f 107//9 111//9 113//9
f 113//5 111//5 112//5
f 112//5 114//5 113//5
f 119//3 120//3 122//3
f 122//3 115//3 119//3
f 166//3 165//3 163//3
f 163//3 170//3 166//3
f 159//3 158//3 162//3
f 162//3 161//3 159//3
f 194//16 189//16 196//16
f 196//16 195//16 194//16
f 189//16 190//16 197//16
f 197//16 196//16 189//16
f 190//16 191//16 198//16
f 198//16 197//16 190//16
f 191//16 192//16 199//16
f 199//16 198//16 191//16
f 192//16 193//16 200//16
f 200//16 199//16 192//16
f 193//16 194//16 195//16
f 195//16 200//16 193//16
f 202//3 201//3 208//3
f 208//3 207//3 202//3
f 201//3 203//3 209//3
f 209//3 208//3 201//3
f 203//3 204//3 210//3
f 210//3 209//3 203//3
f 204//3 205//3 211//3
f 211//3 210//3 204//3
f 205//3 206//3 212//3
f 212//3 211//3 205//3
f 206//3 202//3 207//3
f 207//3 212//3 206//3
f 218//3 213//3 214//3
f 214//3 215//3 218//3
f 218//3 215//3 216//3
f 216//3 217//3 218//3
f 85//6 49//6 64//6
f 64//6 92//6 85//6
f 92//6 64//6 65//6
f 65//6 74//6 92//6
f 116//3 118//3 119//3
f 119//3 115//3 116//3
f 116//3 117//3 118//3
f 120//3 121//3 122//3
f 169//3 167//3 166//3
f 166//3 170//3 169//3
f 169//3 168//3 167//3
f 165//3 164//3 163//3
f 157//3 155//3 162//3
f 162//3 158//3 157//3
f 161//3 160//3 159//3
f 157//3 156//3 155//3
s 1
f 10//17 2//18 1//19
f 1//19 9//20 10//17
f 11//21 3//22 2//18
f 2//18 10//17 11//21
f 12//23 4//24 3//22
f 3//22 11//21 12//23
f 13//25 5//26 4//24
f 4//24 12//23 13//25
f 16//27 8//28 7//29
f 7//29 15//30 16//27
f 16//27 9//20 1//19
f 1//19 8//28 16//27
f 100//31 6//32 14//33
f 14//33 15//30 100//31
f 14//33 6//32 99//34
f 99//34 13//25 14//33
f 100//31 15//30 7//29
f 7//29 98//35 100//31
f 99//34 97//36 5//26
f 5//26 13//25 99//34
f 122//37 9//20 16//27
f 16//27 115//38 122//37
f 115//38 16//27 15//30
f 15//30 116//39 115//38
f 116//39 15//30 14//33
f 14//33 117//40 116//39
f 117//40 14//33 13//25
f 13//25 118//41 117//40
f 118//41 13//25 12//23
f 12//23 119//42 118//41
f 119//42 12//23 11//21
f 11//21 120//43 119//42
f 120//43 11//21 10//17
f 10//17 121//44 120//43
f 121//44 10//17 9//20
f 9//20 122//37 121//44
f 123//45 124//10 131//10
f 131//10 132//45 123//45
f 124//10 125//46 133//46
f 133//46 131//10 124//10
f 125//46 126//16 134//16
f 134//16 133//46 125//46
f 126//16 127//47 135//47
f 135//47 134//16 126//16
f 127//47 128//9 136//9
f 136//9 135//47 127//47
f 128//9 129//48 137//48
f 137//48 136//9 128//9
f 129//48 130//3 138//3
f 138//3 137//48 129//48
f 130//3 123//45 132//45
f 132//45 138//3 130//3
f 156//49 140//6 139//50
f 139//50 155//51 156//49
f 157//52 141//53 140//6
f 140//6 156//49 157//52
f 158//54 142//9 141//53
f 141//53 157//52 158//54
f 159//55 143//56 142//9
f 142//9 158//54 159//55
f 160//57 144//5 143//56
f 143//56 159//55 160//57
f 161//58 145//59 144//5
f 144//5 160//57 161//58
f 162//60 146//10 145//59
f 145//59 161//58 162//60
f 139//50 146//10 162//60
f 162//60 155//51 139//50
f 164//49 148//6 147//50
f 147//50 163//51 164//49
f 165//52 149//53 148//6
f 148//6 164//49 165//52
f 166//54 150//9 149//53
f 149//53 165//52 166//54
f 167//55 151//56 150//9
f 150//9 166//54 167//55
f 168//57 152//5 151//56
f 151//56 167//55 168//57
f 169//58 153//59 152//5
f 152//5 168//57 169//58
f 170//60 154//10 153//59
f 153//59 169//58 170//60
f 163//51 147//50 154//10
f 154//10 170//60 163//51
f 171//61 176//62 177//63
f 177//63 182//64 171//61
f 176//62 175//65 178//66
f 178//66 177//63 176//62
f 175//65 174//67 179//68
f 179//68 178//66 175//65
f 174//67 173//69 180//70
f 180//70 179//68 174//67
f 173//69 172//71 181//72
f 181//72 180//70 173//69
f 172//71 171//61 182//64
f 182//64 181//72 172//71
f 181//72 182//64 183//73
f 183//73 184//74 181//72
f 180//70 181//72 184//74
f 184//74 185//75 180//70
f 179//68 180//70 185//75
f 185//75 186//76 179//68
f 178//66 179//68 186//76
f 186//76 187//77 178//66
f 177//63 178//66 187//77
f 187//77 188//78 177//63
f 182//64 177//63 188//78
f 188//78 183//73 182//64
f 183//73 188//78 189//79
f 189//79 194//80 183//73
f 188//78 187//77 190//81
f 190//81 189//79 188//78
f 187//77 186//76 191//82
f 191//82 190//81 187//77
f 186//76 185//75 192//83
f 192//83 191//82 186//76
f 185//75 184//74 193//84
f 193//84 192//83 185//75
f 184//74 183//73 194//80
f 194//80 193//84 184//74
f 195//85 196//86 201//87
f 201//87 202//88 195//85
f 196//86 197//89 203//90
f 203//90 201//87 196//86
f 197//89 198//91 204//92
f 204//92 203//90 197//89
f 198//91 199//93 205//94
f 205//94 204//92 198//91
f 199//93 200//95 206//96
f 206//96 205//94 199//93
f 200//95 195//85 202//88
f 202//88 206//96 200//95
f 207//97 208//98 214//87
f 214//87 213//88 207//97
f 208//98 209//99 215//90
f 215//90 214//87 208//98
f 209//99 210//100 216//92
f 216//92 215//90 209//99
f 210//100 211//101 217//94
f 217//94 216//92 210//100
f 211//101 212//102 218//96
f 218//96 217//94 211//101
f 212//102 207//97 213//88
f 213//88 218//96 212//102
